<svg width="512" height="512" viewBox="0 0 512 512" fill="none" xmlns="http://www.w3.org/2000/svg">
  <!-- Gradient Definitions - High Contrast Cyberpunk Orange/Yellow -->
  <defs>
    <linearGradient id="crystalGradient512" x1="0%" y1="0%" x2="100%" y2="100%">
      <stop offset="0%" stopColor="#FF4500" stopOpacity="1"/>
      <stop offset="50%" stopColor="#FFD700" stopOpacity="1"/>
      <stop offset="100%" stopColor="#FF6600" stopOpacity="1"/>
    </linearGradient>
    <radialGradient id="cyberpunkGlow512" cx="50%" cy="50%">
      <stop offset="0%" stopColor="#FFEB3B" stopOpacity="0.5"/>
      <stop offset="100%" stopColor="#FF4500" stopOpacity="0.2"/>
    </radialGradient>
    <radialGradient id="darkShadow512" cx="50%" cy="80%">
      <stop offset="0%" stopColor="#000000" stopOpacity="0.4"/>
      <stop offset="100%" stopColor="#000000" stopOpacity="0.1"/>
    </radialGradient>
    <linearGradient id="bgGradient512" x1="0%" y1="0%" x2="100%" y2="100%">
      <stop offset="0%" stopColor="#1A0A00"/>
      <stop offset="100%" stopColor="#331100"/>
    </linearGradient>
  </defs>
  
  <rect width="512" height="512" rx="96" fill="url(#bgGradient512)"/>
  <ellipse cx="256" cy="448" rx="144" ry="56" fill="rgba(0,0,0,0.5)"/>
  <circle cx="256" cy="256" r="176" fill="url(#crystalGradient512)"/>
  <ellipse cx="256" cy="320" rx="144" ry="112" fill="url(#darkShadow512)"/>
  <ellipse cx="208" cy="176" rx="72" ry="88" fill="rgba(255,255,255,0.8)"/>
  <ellipse cx="200" cy="168" rx="35.2" ry="51.2" fill="rgba(255,255,255,0.95)"/>
  <circle cx="256" cy="256" r="144" fill="url(#cyberpunkGlow512)"/>
  <circle cx="288" cy="144" r="20.8" fill="#FFD700" opacity="1"/>
  <circle cx="336" cy="208" r="17.6" fill="#FFEB3B" opacity="1"/>
  <circle cx="160" cy="192" r="16" fill="#FF4500" opacity="0.95"/>
  <circle cx="352" cy="288" r="14.4" fill="#FFD700" opacity="0.95"/>
  <circle cx="128" cy="272" r="12.8" fill="#FF6600" opacity="0.95"/>
  <circle cx="224" cy="128" r="11.2" fill="#FFEB3B" opacity="0.9"/>
  <circle cx="384" cy="256" r="9.6" fill="#FFD700" opacity="0.85"/>
</svg>
